# xmcd
# 
# Track frame offsets:
#     150
#     19749
#     32840
#     51773
#     65166
#     91889
#     102218
#     117532
#     130105
#     142972
#     153709
#     167553
#     182612
#     199012
# 
# Disc length: 2855
# 
# Revision: 1
# Processed by: cddbd v1.5.2PL0 Copyright (c) Steve Scherf et al.
# Submitted via: fre:ac v1.0.27
# 
DISCID=bf0b250e
DTITLE=Watermelon Slim and the Workers - The Wheel Man
DYEAR=2007
DGENRE=Blues
TTITLE0=The Wheel Man
TTITLE1=I've Got News
TTITLE2=Black Water
TTITLE3=Jimmy Bell
TTITLE4=Newspaper Reporter
TTITLE5=Drinking and Driving
TTITLE6=Fast Eddie
TTITLE7=Sawmill Holler
TTITLE8=Truck Driving Mama
TTITLE9=I Know One
TTITLE10=Got Love If You Want It
TTITLE11=Rattlesnake
TTITLE12=Peaches
TTITLE13=Judge Harsh Blues
EXTD=
EXTT0=
EXTT1=
EXTT2=
EXTT3=
EXTT4=
EXTT5=
EXTT6=
EXTT7=
EXTT8=
EXTT9=
EXTT10=
EXTT11=
EXTT12=
EXTT13=
PLAYORDER=
